<svg width="26" height="26" viewBox="0 0 26 26" fill="none" xmlns="http://www.w3.org/2000/svg">
<path d="M21.5584 13.7151C21.3847 13.5174 21.2889 13.2632 21.2889 13.0001C21.2889 12.7369 21.3847 12.4828 21.5584 12.2851L22.945 10.7251C23.0978 10.5546 23.1927 10.3402 23.2161 10.1125C23.2394 9.88476 23.1901 9.6555 23.075 9.45759L20.9084 5.70926C20.7945 5.51157 20.6212 5.35487 20.413 5.2615C20.2049 5.16813 19.9726 5.14284 19.7492 5.18926L17.7125 5.60092C17.4534 5.65447 17.1836 5.61131 16.9541 5.47959C16.7246 5.34787 16.5512 5.1367 16.4667 4.88592L15.8059 2.90342C15.7332 2.68825 15.5947 2.50136 15.41 2.36917C15.2254 2.23698 15.0038 2.16617 14.7767 2.16676H10.4434C10.2071 2.15443 9.97334 2.21976 9.77773 2.35278C9.58211 2.4858 9.43541 2.67919 9.36003 2.90342L8.75336 4.88592C8.66886 5.1367 8.4955 5.34787 8.26599 5.47959C8.03647 5.61131 7.76668 5.65447 7.50753 5.60092L5.4167 5.18926C5.20496 5.15934 4.9891 5.19275 4.79632 5.28528C4.60354 5.37782 4.44246 5.52534 4.33336 5.70926L2.1667 9.45759C2.04879 9.65329 1.99577 9.88127 2.01523 10.1089C2.03469 10.3366 2.12562 10.5522 2.27503 10.7251L3.65086 12.2851C3.82454 12.4828 3.92033 12.7369 3.92033 13.0001C3.92033 13.2632 3.82454 13.5174 3.65086 13.7151L2.27503 15.2751C2.12562 15.4479 2.03469 15.6636 2.01523 15.8913C1.99577 16.1189 2.04879 16.3469 2.1667 16.5426L4.33336 20.2909C4.44722 20.4886 4.62058 20.6453 4.82872 20.7387C5.03686 20.8321 5.26917 20.8573 5.49253 20.8109L7.5292 20.3993C7.78835 20.3457 8.05814 20.3889 8.28765 20.5206C8.51717 20.6523 8.69053 20.8635 8.77503 21.1143L9.43586 23.0968C9.51124 23.321 9.65794 23.5144 9.85356 23.6474C10.0492 23.7804 10.283 23.8458 10.5192 23.8334H14.8525C15.0796 23.834 15.3012 23.7632 15.4859 23.631C15.6706 23.4988 15.809 23.3119 15.8817 23.0968L16.5425 21.1143C16.627 20.8635 16.8004 20.6523 17.0299 20.5206C17.2594 20.3889 17.5292 20.3457 17.7884 20.3993L19.825 20.8109C20.0484 20.8573 20.2807 20.8321 20.4888 20.7387C20.697 20.6453 20.8703 20.4886 20.9842 20.2909L23.1509 16.5426C23.2659 16.3447 23.3153 16.1154 23.2919 15.8877C23.2685 15.66 23.1737 15.4455 23.0209 15.2751L21.5584 13.7151ZM19.9442 15.1668L20.8109 16.1418L19.4242 18.5468L18.1459 18.2868C17.3656 18.1273 16.554 18.2598 15.865 18.6592C15.176 19.0586 14.6577 19.6971 14.4084 20.4534L13.9967 21.6668H11.2234L10.8334 20.4318C10.584 19.6754 10.0657 19.0369 9.37672 18.6375C8.68774 18.2381 7.8761 18.1056 7.09586 18.2651L5.81753 18.5251L4.4092 16.1309L5.27586 15.1559C5.80881 14.5601 6.10346 13.7887 6.10346 12.9893C6.10346 12.1898 5.80881 11.4184 5.27586 10.8226L4.4092 9.84759L5.79586 7.46426L7.0742 7.72426C7.85444 7.88375 8.66608 7.75121 9.35505 7.35181C10.044 6.9524 10.5624 6.31393 10.8117 5.55759L11.2234 4.33342H13.9967L14.4084 5.56842C14.6577 6.32476 15.176 6.96323 15.865 7.36264C16.554 7.76204 17.3656 7.89458 18.1459 7.73509L19.4242 7.47509L20.8109 9.88009L19.9442 10.8551C19.4172 11.4496 19.1262 12.2165 19.1262 13.0109C19.1262 13.8054 19.4172 14.5723 19.9442 15.1668ZM12.61 8.66676C11.753 8.66676 10.9152 8.9209 10.2026 9.39706C9.48995 9.87321 8.93453 10.55 8.60655 11.3418C8.27857 12.1336 8.19276 13.0049 8.35996 13.8455C8.52716 14.6861 8.93987 15.4582 9.5459 16.0642C10.1519 16.6702 10.9241 17.083 11.7646 17.2502C12.6052 17.4174 13.4765 17.3315 14.2683 17.0036C15.0601 16.6756 15.7369 16.1202 16.2131 15.4076C16.6892 14.6949 16.9434 13.8571 16.9434 13.0001C16.9434 11.8508 16.4868 10.7486 15.6742 9.93596C14.8615 9.1233 13.7593 8.66676 12.61 8.66676ZM12.61 15.1668C12.1815 15.1668 11.7626 15.0397 11.4063 14.8016C11.05 14.5635 10.7723 14.2251 10.6083 13.8292C10.4443 13.4333 10.4014 12.9977 10.485 12.5774C10.5686 12.1571 10.775 11.771 11.078 11.468C11.381 11.165 11.767 10.9587 12.1873 10.8751C12.6076 10.7915 13.0433 10.8344 13.4392 10.9984C13.8351 11.1623 14.1735 11.44 14.4115 11.7964C14.6496 12.1527 14.7767 12.5716 14.7767 13.0001C14.7767 13.5747 14.5484 14.1258 14.1421 14.5322C13.7358 14.9385 13.1847 15.1668 12.61 15.1668Z" fill="white"/>
</svg>
